<?xml version="1.0" encoding="utf-8"?>
<svg xmlns="http://www.w3.org/2000/svg" xmlns:xlink="http://www.w3.org/1999/xlink" style="margin: auto; background: rgb(255, 255, 255); display: block; shape-rendering: auto;" width="211px" height="211px" viewBox="0 0 100 100" preserveAspectRatio="xMidYMid">
<g transform="rotate(0 50 50)">
  <rect x="49" y="23.5" rx="0" ry="0" width="2" height="7" fill="#0b1d27">
    <animate attributeName="opacity" values="1;0" keyTimes="0;1" dur="0.78125s" begin="-0.7560483870967742s" repeatCount="indefinite"></animate>
  </rect>
</g><g transform="rotate(11.612903225806452 50 50)">
  <rect x="49" y="23.5" rx="0" ry="0" width="2" height="7" fill="#0b1d27">
    <animate attributeName="opacity" values="1;0" keyTimes="0;1" dur="0.78125s" begin="-0.7308467741935484s" repeatCount="indefinite"></animate>
  </rect>
</g><g transform="rotate(23.225806451612904 50 50)">
  <rect x="49" y="23.5" rx="0" ry="0" width="2" height="7" fill="#0b1d27">
    <animate attributeName="opacity" values="1;0" keyTimes="0;1" dur="0.78125s" begin="-0.7056451612903226s" repeatCount="indefinite"></animate>
  </rect>
</g><g transform="rotate(34.83870967741935 50 50)">
  <rect x="49" y="23.5" rx="0" ry="0" width="2" height="7" fill="#0b1d27">
    <animate attributeName="opacity" values="1;0" keyTimes="0;1" dur="0.78125s" begin="-0.6804435483870968s" repeatCount="indefinite"></animate>
  </rect>
</g><g transform="rotate(46.45161290322581 50 50)">
  <rect x="49" y="23.5" rx="0" ry="0" width="2" height="7" fill="#0b1d27">
    <animate attributeName="opacity" values="1;0" keyTimes="0;1" dur="0.78125s" begin="-0.655241935483871s" repeatCount="indefinite"></animate>
  </rect>
</g><g transform="rotate(58.064516129032256 50 50)">
  <rect x="49" y="23.5" rx="0" ry="0" width="2" height="7" fill="#0b1d27">
    <animate attributeName="opacity" values="1;0" keyTimes="0;1" dur="0.78125s" begin="-0.6300403225806451s" repeatCount="indefinite"></animate>
  </rect>
</g><g transform="rotate(69.6774193548387 50 50)">
  <rect x="49" y="23.5" rx="0" ry="0" width="2" height="7" fill="#0b1d27">
    <animate attributeName="opacity" values="1;0" keyTimes="0;1" dur="0.78125s" begin="-0.6048387096774194s" repeatCount="indefinite"></animate>
  </rect>
</g><g transform="rotate(81.29032258064517 50 50)">
  <rect x="49" y="23.5" rx="0" ry="0" width="2" height="7" fill="#0b1d27">
    <animate attributeName="opacity" values="1;0" keyTimes="0;1" dur="0.78125s" begin="-0.5796370967741935s" repeatCount="indefinite"></animate>
  </rect>
</g><g transform="rotate(92.90322580645162 50 50)">
  <rect x="49" y="23.5" rx="0" ry="0" width="2" height="7" fill="#0b1d27">
    <animate attributeName="opacity" values="1;0" keyTimes="0;1" dur="0.78125s" begin="-0.5544354838709677s" repeatCount="indefinite"></animate>
  </rect>
</g><g transform="rotate(104.51612903225806 50 50)">
  <rect x="49" y="23.5" rx="0" ry="0" width="2" height="7" fill="#0b1d27">
    <animate attributeName="opacity" values="1;0" keyTimes="0;1" dur="0.78125s" begin="-0.529233870967742s" repeatCount="indefinite"></animate>
  </rect>
</g><g transform="rotate(116.12903225806451 50 50)">
  <rect x="49" y="23.5" rx="0" ry="0" width="2" height="7" fill="#0b1d27">
    <animate attributeName="opacity" values="1;0" keyTimes="0;1" dur="0.78125s" begin="-0.5040322580645161s" repeatCount="indefinite"></animate>
  </rect>
</g><g transform="rotate(127.74193548387096 50 50)">
  <rect x="49" y="23.5" rx="0" ry="0" width="2" height="7" fill="#0b1d27">
    <animate attributeName="opacity" values="1;0" keyTimes="0;1" dur="0.78125s" begin="-0.4788306451612903s" repeatCount="indefinite"></animate>
  </rect>
</g><g transform="rotate(139.3548387096774 50 50)">
  <rect x="49" y="23.5" rx="0" ry="0" width="2" height="7" fill="#0b1d27">
    <animate attributeName="opacity" values="1;0" keyTimes="0;1" dur="0.78125s" begin="-0.4536290322580645s" repeatCount="indefinite"></animate>
  </rect>
</g><g transform="rotate(150.96774193548387 50 50)">
  <rect x="49" y="23.5" rx="0" ry="0" width="2" height="7" fill="#0b1d27">
    <animate attributeName="opacity" values="1;0" keyTimes="0;1" dur="0.78125s" begin="-0.4284274193548387s" repeatCount="indefinite"></animate>
  </rect>
</g><g transform="rotate(162.58064516129033 50 50)">
  <rect x="49" y="23.5" rx="0" ry="0" width="2" height="7" fill="#0b1d27">
    <animate attributeName="opacity" values="1;0" keyTimes="0;1" dur="0.78125s" begin="-0.40322580645161293s" repeatCount="indefinite"></animate>
  </rect>
</g><g transform="rotate(174.19354838709677 50 50)">
  <rect x="49" y="23.5" rx="0" ry="0" width="2" height="7" fill="#0b1d27">
    <animate attributeName="opacity" values="1;0" keyTimes="0;1" dur="0.78125s" begin="-0.3780241935483871s" repeatCount="indefinite"></animate>
  </rect>
</g><g transform="rotate(185.80645161290323 50 50)">
  <rect x="49" y="23.5" rx="0" ry="0" width="2" height="7" fill="#0b1d27">
    <animate attributeName="opacity" values="1;0" keyTimes="0;1" dur="0.78125s" begin="-0.3528225806451613s" repeatCount="indefinite"></animate>
  </rect>
</g><g transform="rotate(197.41935483870967 50 50)">
  <rect x="49" y="23.5" rx="0" ry="0" width="2" height="7" fill="#0b1d27">
    <animate attributeName="opacity" values="1;0" keyTimes="0;1" dur="0.78125s" begin="-0.3276209677419355s" repeatCount="indefinite"></animate>
  </rect>
</g><g transform="rotate(209.03225806451613 50 50)">
  <rect x="49" y="23.5" rx="0" ry="0" width="2" height="7" fill="#0b1d27">
    <animate attributeName="opacity" values="1;0" keyTimes="0;1" dur="0.78125s" begin="-0.3024193548387097s" repeatCount="indefinite"></animate>
  </rect>
</g><g transform="rotate(220.6451612903226 50 50)">
  <rect x="49" y="23.5" rx="0" ry="0" width="2" height="7" fill="#0b1d27">
    <animate attributeName="opacity" values="1;0" keyTimes="0;1" dur="0.78125s" begin="-0.2772177419354839s" repeatCount="indefinite"></animate>
  </rect>
</g><g transform="rotate(232.25806451612902 50 50)">
  <rect x="49" y="23.5" rx="0" ry="0" width="2" height="7" fill="#0b1d27">
    <animate attributeName="opacity" values="1;0" keyTimes="0;1" dur="0.78125s" begin="-0.25201612903225806s" repeatCount="indefinite"></animate>
  </rect>
</g><g transform="rotate(243.8709677419355 50 50)">
  <rect x="49" y="23.5" rx="0" ry="0" width="2" height="7" fill="#0b1d27">
    <animate attributeName="opacity" values="1;0" keyTimes="0;1" dur="0.78125s" begin="-0.22681451612903225s" repeatCount="indefinite"></animate>
  </rect>
</g><g transform="rotate(255.48387096774192 50 50)">
  <rect x="49" y="23.5" rx="0" ry="0" width="2" height="7" fill="#0b1d27">
    <animate attributeName="opacity" values="1;0" keyTimes="0;1" dur="0.78125s" begin="-0.20161290322580647s" repeatCount="indefinite"></animate>
  </rect>
</g><g transform="rotate(267.0967741935484 50 50)">
  <rect x="49" y="23.5" rx="0" ry="0" width="2" height="7" fill="#0b1d27">
    <animate attributeName="opacity" values="1;0" keyTimes="0;1" dur="0.78125s" begin="-0.17641129032258066s" repeatCount="indefinite"></animate>
  </rect>
</g><g transform="rotate(278.7096774193548 50 50)">
  <rect x="49" y="23.5" rx="0" ry="0" width="2" height="7" fill="#0b1d27">
    <animate attributeName="opacity" values="1;0" keyTimes="0;1" dur="0.78125s" begin="-0.15120967741935484s" repeatCount="indefinite"></animate>
  </rect>
</g><g transform="rotate(290.3225806451613 50 50)">
  <rect x="49" y="23.5" rx="0" ry="0" width="2" height="7" fill="#0b1d27">
    <animate attributeName="opacity" values="1;0" keyTimes="0;1" dur="0.78125s" begin="-0.12600806451612903s" repeatCount="indefinite"></animate>
  </rect>
</g><g transform="rotate(301.93548387096774 50 50)">
  <rect x="49" y="23.5" rx="0" ry="0" width="2" height="7" fill="#0b1d27">
    <animate attributeName="opacity" values="1;0" keyTimes="0;1" dur="0.78125s" begin="-0.10080645161290323s" repeatCount="indefinite"></animate>
  </rect>
</g><g transform="rotate(313.5483870967742 50 50)">
  <rect x="49" y="23.5" rx="0" ry="0" width="2" height="7" fill="#0b1d27">
    <animate attributeName="opacity" values="1;0" keyTimes="0;1" dur="0.78125s" begin="-0.07560483870967742s" repeatCount="indefinite"></animate>
  </rect>
</g><g transform="rotate(325.16129032258067 50 50)">
  <rect x="49" y="23.5" rx="0" ry="0" width="2" height="7" fill="#0b1d27">
    <animate attributeName="opacity" values="1;0" keyTimes="0;1" dur="0.78125s" begin="-0.05040322580645162s" repeatCount="indefinite"></animate>
  </rect>
</g><g transform="rotate(336.7741935483871 50 50)">
  <rect x="49" y="23.5" rx="0" ry="0" width="2" height="7" fill="#0b1d27">
    <animate attributeName="opacity" values="1;0" keyTimes="0;1" dur="0.78125s" begin="-0.02520161290322581s" repeatCount="indefinite"></animate>
  </rect>
</g><g transform="rotate(348.38709677419354 50 50)">
  <rect x="49" y="23.5" rx="0" ry="0" width="2" height="7" fill="#0b1d27">
    <animate attributeName="opacity" values="1;0" keyTimes="0;1" dur="0.78125s" begin="0s" repeatCount="indefinite"></animate>
  </rect>
</g>
<!-- [ldio] generated by https://loading.io/ --></svg>